<svg width="82" height="82" viewBox="0 0 82 82" fill="none" xmlns="http://www.w3.org/2000/svg">
<path d="M73.5737 19.095L42.9263 1.40498L40.5 0L38.0737 1.40498L7.42626 19.095L5 20.5V23.31V58.69V61.5L7.42626 62.905L38.0737 80.595L40.5 82L42.9263 80.595L73.5737 62.905L76 61.5V58.69V23.31V20.5L73.5737 19.095Z" fill="#9ffffc"/>
<path d="M73.5738 19.095L42.9263 1.40498L40.5 0L38.0737 1.40498L7.42626 19.095L5 20.5V23.31V58.69V61.5L7.42626 62.905L38.0737 80.595L40.5 82L42.9263 80.595L73.5738 62.905L76 61.5V58.69V23.31V20.5L73.5738 19.095ZM24.857 67.3754V50.5794L9.78867 41.8941V23.3738L25.3678 14.3692L40.6277 23.1184L55.6322 14.3692L70.8921 23.1822L55.7599 31.9315L40.5638 40.8084V76.3801H40.5L24.857 67.3754ZM56.2068 67.3115V49.4938L71.1475 40.8723V58.7539L56.2068 67.3115Z" fill="#FF8EBE"/>
<path d="M9.85217 23.3125L40.5636 40.811V76.3827L40.4997 76.4465L24.8567 67.378V50.582L9.85217 41.8328V23.3125Z" fill="#8be8e3"/>
</svg>
