<svg width="194" height="81" viewBox="0 0 194 81" fill="none" xmlns="http://www.w3.org/2000/svg">
<path d="M33.875 24.8438C33.875 27.7604 33.4792 30.3438 32.6875 32.5938C31.9167 34.8438 30.7812 36.75 29.2812 38.3125C27.8021 39.8542 26.0104 41.0208 23.9062 41.8125C21.8229 42.6042 19.4688 43 16.8438 43C14.3854 43 12.125 42.6042 10.0625 41.8125C8.02083 41.0208 6.23958 39.8542 4.71875 38.3125C3.21875 36.75 2.05208 34.8438 1.21875 32.5938C0.40625 30.3438 0 27.7604 0 24.8438C0 20.9688 0.6875 17.6875 2.0625 15C3.4375 12.3125 5.39583 10.2708 7.9375 8.875C10.4792 7.47917 13.5104 6.78125 17.0312 6.78125C20.3021 6.78125 23.1979 7.47917 25.7188 8.875C28.2604 10.2708 30.25 12.3125 31.6875 15C33.1458 17.6875 33.875 20.9688 33.875 24.8438ZM9.71875 24.8438C9.71875 27.1354 9.96875 29.0625 10.4688 30.625C10.9688 32.1875 11.75 33.3646 12.8125 34.1562C13.875 34.9479 15.2604 35.3438 16.9688 35.3438C18.6562 35.3438 20.0208 34.9479 21.0625 34.1562C22.125 33.3646 22.8958 32.1875 23.375 30.625C23.875 29.0625 24.125 27.1354 24.125 24.8438C24.125 22.5312 23.875 20.6146 23.375 19.0938C22.8958 17.5521 22.125 16.3958 21.0625 15.625C20 14.8542 18.6146 14.4688 16.9062 14.4688C14.3854 14.4688 12.5521 15.3333 11.4062 17.0625C10.2812 18.7917 9.71875 21.3854 9.71875 24.8438ZM57.1138 6.78125C60.8429 6.78125 63.8429 7.80208 66.1138 9.84375C68.3846 11.8646 69.52 15.1146 69.52 19.5938V42.375H59.9888V21.9688C59.9888 19.4688 59.5304 17.5833 58.6138 16.3125C57.7179 15.0417 56.3013 14.4062 54.3638 14.4062C51.4471 14.4062 49.4575 15.3958 48.395 17.375C47.3325 19.3542 46.8013 22.2083 46.8013 25.9375V42.375H37.27V7.4375H44.5513L45.8325 11.9062H46.3638C47.1138 10.6979 48.0408 9.71875 49.145 8.96875C50.27 8.21875 51.5096 7.66667 52.8638 7.3125C54.2388 6.95833 55.6554 6.78125 57.1138 6.78125ZM89.2588 6.78125C92.4879 6.78125 95.2692 7.40625 97.6025 8.65625C99.9358 9.88542 101.738 11.6771 103.009 14.0312C104.28 16.3854 104.915 19.2604 104.915 22.6562V27.2812H82.3838C82.4879 29.9688 83.29 32.0833 84.79 33.625C86.3108 35.1458 88.415 35.9062 91.1025 35.9062C93.3317 35.9062 95.3733 35.6771 97.2275 35.2188C99.0817 34.7604 100.988 34.0729 102.946 33.1562V40.5312C101.217 41.3854 99.4046 42.0104 97.5088 42.4062C95.6338 42.8021 93.3525 43 90.665 43C87.165 43 84.0608 42.3542 81.3525 41.0625C78.665 39.7708 76.5504 37.8021 75.0088 35.1562C73.4879 32.5104 72.7275 29.1771 72.7275 25.1562C72.7275 21.0729 73.415 17.6771 74.79 14.9688C76.1858 12.2396 78.1233 10.1979 80.6025 8.84375C83.0817 7.46875 85.9671 6.78125 89.2588 6.78125ZM89.3213 13.5625C87.4671 13.5625 85.9254 14.1562 84.6963 15.3438C83.4879 16.5312 82.79 18.3958 82.6025 20.9375H95.9775C95.9567 19.5208 95.6963 18.2604 95.1963 17.1562C94.7171 16.0521 93.9879 15.1771 93.0088 14.5312C92.0504 13.8854 90.8213 13.5625 89.3213 13.5625ZM115.341 24.5312L104.091 7.4375H114.904L121.685 18.5625L128.529 7.4375H139.341L127.966 24.5312L139.872 42.375H129.029L121.685 30.4062L114.31 42.375H103.497L115.341 24.5312ZM155.424 35.4062C156.465 35.4062 157.476 35.3021 158.455 35.0938C159.455 34.8854 160.445 34.625 161.424 34.3125V41.4062C160.403 41.8646 159.132 42.2396 157.611 42.5312C156.111 42.8438 154.465 43 152.674 43C150.59 43 148.715 42.6667 147.049 42C145.403 41.3125 144.101 40.1354 143.143 38.4688C142.205 36.7812 141.736 34.4375 141.736 31.4375V14.5938H137.174V10.5625L142.424 7.375L145.174 0H151.268V7.4375H161.049V14.5938H151.268V31.4375C151.268 32.7708 151.643 33.7708 152.393 34.4375C153.163 35.0833 154.174 35.4062 155.424 35.4062Z" fill="#184AD7"/>
<path d="M10.6821 69.2793C11.1759 69.2793 11.6818 69.2371 12.1997 69.1528C12.7176 69.0685 13.1392 68.9661 13.4644 68.8457V71.1763C13.1151 71.3328 12.6273 71.4653 12.001 71.5737C11.3867 71.6821 10.7845 71.7363 10.1943 71.7363C9.14648 71.7363 8.19499 71.5557 7.33984 71.1943C6.4847 70.821 5.79818 70.1947 5.28027 69.3154C4.77441 68.4362 4.52148 67.2197 4.52148 65.666V53.9229H1.70312V52.4595L4.53955 51.2852L5.73193 46.9854H7.53857V51.5742H13.3379V53.9229H7.53857V65.5757C7.53857 66.8162 7.82161 67.7437 8.3877 68.3579C8.96582 68.9722 9.73063 69.2793 10.6821 69.2793ZM24.7291 51.2129C26.4153 51.2129 27.8606 51.5863 29.0651 52.333C30.2695 53.0798 31.1909 54.1276 31.8292 55.4766C32.4676 56.8135 32.7867 58.3792 32.7867 60.1738V62.0347H19.1105C19.1466 64.3592 19.7247 66.1297 20.8448 67.3462C21.965 68.5627 23.5428 69.1709 25.5782 69.1709C26.8308 69.1709 27.9389 69.0565 28.9025 68.8276C29.866 68.5988 30.8657 68.2616 31.9015 67.8159V70.4536C30.9018 70.8993 29.9082 71.2244 28.9205 71.4292C27.9449 71.634 26.7887 71.7363 25.4518 71.7363C23.5488 71.7363 21.8867 71.3509 20.4654 70.5801C19.0563 69.7972 17.9602 68.653 17.1774 67.1475C16.3945 65.6419 16.003 63.7992 16.003 61.6191C16.003 59.4873 16.3584 57.6445 17.069 56.0908C17.7916 54.5251 18.8033 53.3206 20.1041 52.4775C21.4169 51.6344 22.9586 51.2129 24.7291 51.2129ZM24.693 53.6699C23.0911 53.6699 21.8144 54.1938 20.8629 55.2417C19.9114 56.2896 19.3453 57.7529 19.1647 59.6318H29.6432C29.6311 58.4515 29.4445 57.4157 29.0831 56.5244C28.7338 55.6211 28.1979 54.9225 27.4752 54.4287C26.7526 53.9229 25.8251 53.6699 24.693 53.6699ZM45.4426 71.7363C43.6601 71.7363 42.0883 71.369 40.7273 70.6343C39.3663 69.8996 38.3064 68.7795 37.5476 67.2739C36.7888 65.7684 36.4094 63.8714 36.4094 61.583C36.4094 59.1862 36.8069 57.229 37.6018 55.7114C38.4088 54.1818 39.5168 53.0496 40.926 52.3149C42.3352 51.5802 43.9371 51.2129 45.7317 51.2129C46.7193 51.2129 47.6708 51.3153 48.5862 51.52C49.5136 51.7127 50.2724 51.9596 50.8625 52.2607L49.9592 54.772C49.357 54.5311 48.6584 54.3143 47.8635 54.1216C47.0806 53.9289 46.3459 53.8325 45.6594 53.8325C44.2864 53.8325 43.1422 54.1276 42.2268 54.7178C41.3235 55.3079 40.643 56.1751 40.1853 57.3193C39.7397 58.4635 39.5168 59.8727 39.5168 61.5469C39.5168 63.1488 39.7336 64.5158 40.1672 65.6479C40.6129 66.7801 41.2693 67.6473 42.1365 68.2495C43.0157 68.8397 44.1117 69.1348 45.4245 69.1348C46.4724 69.1348 47.4179 69.0264 48.261 68.8096C49.1041 68.5807 49.8689 68.3158 50.5554 68.0146V70.6885C49.893 71.0257 49.1523 71.2847 48.3332 71.4653C47.5263 71.646 46.5627 71.7363 45.4426 71.7363ZM57.8817 43.2637V51.6646C57.8817 52.1463 57.8697 52.6341 57.8456 53.1279C57.8215 53.6097 57.7793 54.0553 57.7191 54.4648H57.9178C58.3273 53.7663 58.8452 53.1821 59.4715 52.7124C60.1099 52.2306 60.8325 51.8693 61.6395 51.6284C62.4465 51.3755 63.3016 51.249 64.2049 51.249C65.7948 51.249 67.1197 51.502 68.1796 52.0078C69.2515 52.5137 70.0524 53.2965 70.5824 54.3564C71.1244 55.4163 71.3954 56.7894 71.3954 58.4756V71.375H68.4325V58.6743C68.4325 57.0243 68.0531 55.7897 67.2943 54.9707C66.5476 54.1517 65.3973 53.7422 63.8436 53.7422C62.3742 53.7422 61.1999 54.0252 60.3207 54.5913C59.4535 55.1453 58.8272 55.9644 58.4418 57.0483C58.0684 58.1323 57.8817 59.4572 57.8817 61.0229V71.375H54.8827V43.2637H57.8817ZM86.5805 51.2129C88.9292 51.2129 90.7057 51.791 91.9101 52.9473C93.1146 54.0915 93.7168 55.9342 93.7168 58.4756V71.375H90.7539V58.6743C90.7539 57.0243 90.3745 55.7897 89.6157 54.9707C88.869 54.1517 87.7187 53.7422 86.165 53.7422C83.973 53.7422 82.4313 54.3625 81.54 55.603C80.6487 56.8436 80.2031 58.6442 80.2031 61.0049V71.375H77.2041V51.5742H79.625L80.0766 54.4287H80.2392C80.6608 53.7301 81.1968 53.146 81.8471 52.6763C82.4975 52.1945 83.2262 51.8332 84.0332 51.5923C84.8401 51.3394 85.6893 51.2129 86.5805 51.2129ZM116.598 61.4385C116.598 63.0645 116.387 64.5158 115.966 65.7925C115.544 67.0692 114.936 68.1471 114.141 69.0264C113.346 69.9056 112.383 70.5801 111.251 71.0498C110.13 71.5075 108.86 71.7363 107.439 71.7363C106.114 71.7363 104.897 71.5075 103.789 71.0498C102.693 70.5801 101.742 69.9056 100.935 69.0264C100.14 68.1471 99.5195 67.0692 99.0738 65.7925C98.6402 64.5158 98.4234 63.0645 98.4234 61.4385C98.4234 59.2705 98.7908 57.4277 99.5255 55.9102C100.26 54.3805 101.308 53.2183 102.669 52.4233C104.042 51.6164 105.674 51.2129 107.565 51.2129C109.372 51.2129 110.949 51.6164 112.298 52.4233C113.659 53.2303 114.713 54.3986 115.46 55.9282C116.219 57.4458 116.598 59.2826 116.598 61.4385ZM101.531 61.4385C101.531 63.0283 101.742 64.4074 102.163 65.5757C102.585 66.744 103.235 67.6473 104.114 68.2856C104.994 68.924 106.126 69.2432 107.511 69.2432C108.884 69.2432 110.01 68.924 110.889 68.2856C111.781 67.6473 112.437 66.744 112.858 65.5757C113.28 64.4074 113.491 63.0283 113.491 61.4385C113.491 59.8607 113.28 58.4997 112.858 57.3555C112.437 56.1992 111.787 55.3079 110.907 54.6816C110.028 54.0553 108.89 53.7422 107.493 53.7422C105.433 53.7422 103.922 54.4227 102.958 55.7837C102.007 57.1447 101.531 59.0296 101.531 61.4385ZM124.43 71.375H121.413V43.2637H124.43V71.375ZM147.474 61.4385C147.474 63.0645 147.264 64.5158 146.842 65.7925C146.421 67.0692 145.812 68.1471 145.017 69.0264C144.223 69.9056 143.259 70.5801 142.127 71.0498C141.007 71.5075 139.736 71.7363 138.315 71.7363C136.99 71.7363 135.773 71.5075 134.665 71.0498C133.569 70.5801 132.618 69.9056 131.811 69.0264C131.016 68.1471 130.396 67.0692 129.95 65.7925C129.516 64.5158 129.3 63.0645 129.3 61.4385C129.3 59.2705 129.667 57.4277 130.402 55.9102C131.136 54.3805 132.184 53.2183 133.545 52.4233C134.918 51.6164 136.55 51.2129 138.441 51.2129C140.248 51.2129 141.826 51.6164 143.175 52.4233C144.536 53.2303 145.59 54.3986 146.336 55.9282C147.095 57.4458 147.474 59.2826 147.474 61.4385ZM132.407 61.4385C132.407 63.0283 132.618 64.4074 133.039 65.5757C133.461 66.744 134.111 67.6473 134.991 68.2856C135.87 68.924 137.002 69.2432 138.387 69.2432C139.76 69.2432 140.886 68.924 141.765 68.2856C142.657 67.6473 143.313 66.744 143.735 65.5757C144.156 64.4074 144.367 63.0283 144.367 61.4385C144.367 59.8607 144.156 58.4997 143.735 57.3555C143.313 56.1992 142.663 55.3079 141.784 54.6816C140.904 54.0553 139.766 53.7422 138.369 53.7422C136.309 53.7422 134.798 54.4227 133.834 55.7837C132.883 57.1447 132.407 59.0296 132.407 61.4385ZM157.818 80.2637C155.216 80.2637 153.211 79.7759 151.802 78.8003C150.393 77.8368 149.688 76.4818 149.688 74.7354C149.688 73.4948 150.079 72.4349 150.862 71.5557C151.657 70.6764 152.753 70.0923 154.15 69.8032C153.632 69.5623 153.187 69.201 152.813 68.7192C152.452 68.2375 152.271 67.6834 152.271 67.0571C152.271 66.3345 152.47 65.7021 152.868 65.1602C153.277 64.6061 153.897 64.0762 154.728 63.5703C153.693 63.1488 152.85 62.4382 152.199 61.4385C151.561 60.4268 151.242 59.2524 151.242 57.9155C151.242 56.4943 151.537 55.2839 152.127 54.2842C152.717 53.2725 153.572 52.5016 154.692 51.9717C155.812 51.4417 157.167 51.1768 158.757 51.1768C159.107 51.1768 159.456 51.1948 159.805 51.231C160.166 51.255 160.51 51.2972 160.835 51.3574C161.16 51.4056 161.443 51.4658 161.684 51.5381H168.477V53.4712L164.828 53.9229C165.189 54.3926 165.49 54.9587 165.731 55.6211C165.972 56.2835 166.092 57.0182 166.092 57.8252C166.092 59.8005 165.424 61.3722 164.087 62.5405C162.75 63.6968 160.913 64.2749 158.577 64.2749C158.023 64.2749 157.456 64.2267 156.878 64.1304C156.288 64.4556 155.837 64.8169 155.523 65.2144C155.222 65.6118 155.072 66.0695 155.072 66.5874C155.072 66.9728 155.186 67.2799 155.415 67.5088C155.656 67.7376 155.999 67.9062 156.445 68.0146C156.89 68.111 157.426 68.1592 158.053 68.1592H161.54C163.695 68.1592 165.345 68.6108 166.49 69.5142C167.646 70.4175 168.224 71.7363 168.224 73.4707C168.224 75.6628 167.333 77.3429 165.55 78.5112C163.768 79.6795 161.19 80.2637 157.818 80.2637ZM157.908 77.915C159.546 77.915 160.901 77.7464 161.973 77.4092C163.057 77.084 163.864 76.6082 164.394 75.9819C164.936 75.3677 165.207 74.633 165.207 73.7778C165.207 72.9829 165.026 72.3807 164.665 71.9712C164.304 71.5737 163.774 71.3088 163.075 71.1763C162.377 71.0317 161.521 70.9595 160.51 70.9595H157.077C156.186 70.9595 155.409 71.098 154.747 71.375C154.084 71.652 153.572 72.0615 153.211 72.6035C152.862 73.1455 152.687 73.82 152.687 74.627C152.687 75.6989 153.139 76.5119 154.042 77.0659C154.945 77.632 156.234 77.915 157.908 77.915ZM158.685 62.0889C160.118 62.0889 161.196 61.7275 161.919 61.0049C162.642 60.2822 163.003 59.2284 163.003 57.8433C163.003 56.3618 162.636 55.2537 161.901 54.519C161.166 53.7723 160.082 53.3989 158.649 53.3989C157.276 53.3989 156.216 53.7843 155.469 54.5552C154.734 55.314 154.367 56.4281 154.367 57.8975C154.367 59.2464 154.741 60.2822 155.487 61.0049C156.234 61.7275 157.3 62.0889 158.685 62.0889ZM168.884 51.5742H172.1L176.472 63.0645C176.725 63.7389 176.96 64.3893 177.176 65.0156C177.393 65.6299 177.586 66.2201 177.754 66.7861C177.923 67.3522 178.056 67.9002 178.152 68.4302H178.278C178.447 67.828 178.688 67.0391 179.001 66.0635C179.314 65.0758 179.651 64.0701 180.013 63.0464L184.15 51.5742H187.384L178.766 74.2837C178.309 75.5002 177.773 76.5601 177.158 77.4634C176.556 78.3667 175.821 79.0592 174.954 79.541C174.087 80.0348 173.039 80.2817 171.811 80.2817C171.245 80.2817 170.745 80.2456 170.311 80.1733C169.878 80.1131 169.504 80.0409 169.191 79.9565V77.5537C169.456 77.6139 169.775 77.6681 170.149 77.7163C170.534 77.7645 170.931 77.7886 171.341 77.7886C172.088 77.7886 172.732 77.644 173.274 77.355C173.828 77.078 174.304 76.6685 174.701 76.1265C175.099 75.5845 175.442 74.9401 175.731 74.1934L176.815 71.4111L168.884 51.5742Z" fill="#184AD7"/>
<path d="M164.458 41.875V20.875L176.458 31.375L164.458 41.875ZM177.792 41.875V20.875L189.792 31.375L177.792 41.875Z" fill="#184AD7"/>
</svg>
