<svg id="Capa_2" data-name="Capa 2" xmlns="http://www.w3.org/2000/svg" viewBox="0 0 191.33 27.59">
  <defs>
    <style>
      .cls-1 {
        fill: #ff007f;
      }
    </style>
  </defs>
  <g id="Capa_1-2" data-name="Capa 1">
    <g>
      <path class="cls-1" d="M59.24,4.6h4.6l5.17,9.77,5.17-9.77h4.6l-9.77,18.97-9.77-18.97ZM181.56,4.02l-9.77,18.97h4.6s5.17-9.77,5.17-9.77l5.17,9.77h4.6s-9.77-18.97-9.77-18.97ZM85.23,4.6v18.39h4.6v-13.79h11.49s0-4.6,0-4.6h-16.09ZM167.08,4.6h-4.6l-3.45,6.9h-5.75s0-6.9,0-6.9h-4.6v18.39h4.6v-6.9h5.75s3.45,6.9,3.45,6.9h4.6s-4.6-9.19-4.6-9.19l4.6-9.2ZM121.1,4.6v18.39h4.6v-13.79s9.19,0,9.19,0v13.79h4.6V4.6h-18.39ZM111.91,4.6h-4.6v18.39h4.6V4.6Z"></path>
      <g>
        <path class="cls-1" d="M0,27.59v-10.34s4.6,0,4.6,0v5.75s39.08,0,39.08,0v-5.75s4.6,0,4.6,0v10.34S0,27.59,0,27.59ZM0,0v10.34h4.6s0-5.75,0-5.75h39.08s0,5.75,0,5.75h4.6s0-10.34,0-10.34H0Z"></path>
        <path class="cls-1" d="M12.65,10.34l2.3,2.3,2.3-2.3,2.3,2.3-4.6,4.6-4.6-4.6,2.3-2.3ZM28.74,12.64l4.6,4.6,4.6-4.6-2.3-2.3-2.3,2.3-2.3-2.3-2.3,2.3Z"></path>
      </g>
    </g>
  </g>
</svg>