<svg xmlns="http://www.w3.org/2000/svg" width="2668" height="1024">
  <path d="M800.98 258.36c39.27 0 72.25-16.5 95.02-41.62v-87.17H782.92v26.7h82.45v49.47c-11.78 11.78-36.12 25.92-64.39 25.92-52.61 0-92.66-40.84-92.66-98.16s40.05-98.16 92.66-98.16 54.97 14.13 69.9 32.98l23.55-14.92c-21.2-26.7-51.04-45.55-93.45-45.55-69.1 0-124.07 50.26-124.07 124.86s54.97 124.86 124.07 124.86zm205.74-155.49V75.4c-23.55 0-43.97 13.35-58.1 31.4V78.54h-27.5v174.33h27.5V128.78c7.85-14.13 30.62-27.48 47.11-27.48s7.85 0 11 .78zm137.43 104.44c-10.21 14.14-30.63 26.7-51.83 26.7s-39.26-8.64-39.26-40.05V79.31h-27.49v123.3c0 37.68 18.85 55.75 55.76 55.75s48.68-14.14 62.03-29.06v24.34h27.49V78.53h-27.49V207.3zM1283.14 74.6a72.44 72.44 0 0 0-58.9 30.63V79.3h-27.48v241.1h27.49v-92.66c14.13 19.63 35.33 30.63 58.9 30.63 45.54 0 77.73-35.34 77.73-91.88s-31.4-91.88-77.74-91.88zm-7.07 158.63c-21.2 0-42.4-13.35-51.82-28.27v-78.53c9.42-14.92 30.62-28.27 51.82-28.27 35.34 0 55.76 28.27 55.76 67.53s-21.2 67.54-55.76 67.54zm189.26 24.34c53.4 0 86.38-40.83 86.38-91.88s-32.99-91.09-86.39-91.09-86.38 40.84-86.38 91.1 32.99 91.87 86.38 91.87zm0-159.41c36.9 0 58.1 31.41 58.1 67.53s-20.41 67.54-58.1 67.54-58.11-31.41-58.11-67.54c0-35.33 21.2-67.53 58.1-67.53z"/>
  <path fill="#548cbe" d="M877.94 505.72c26.7-5.5 49.47-29.84 49.47-65.97s-28.27-73.03-82.45-73.03H694.18v286.63h155.49c54.97 0 83.24-34.55 83.24-77.74s-24.35-65.97-54.97-70.68zm-123.29-86.38h76.17c20.42 0 33.77 13.35 33.77 31.4s-12.56 30.63-33.77 30.63h-76.17v-62.03zm78.53 181.4h-78.53v-66.75h78.53c24.34 0 36.9 15.7 36.9 33.76 0 20.42-14.13 32.99-36.9 32.99zm166.48-241.87c-17.28 0-32.99 14.14-32.99 32.2s14.92 32.98 32.99 32.98 32.98-14.92 32.98-32.98c0-18.06-14.92-32.2-32.98-32.2zm-26.7 87.17h54.97v207.31h-54.97V446.04zm104.44-79.32h54.18v286.63h-54.18V366.72zm104.44 0h54.97v286.63h-54.97V366.72zm104.44 79.32h54.97v207.31h-54.97V446.04zm26.7-87.17c-17.27 0-32.98 14.14-32.98 32.2s14.92 32.98 32.98 32.98 32.98-14.92 32.98-32.98-14.92-32.2-32.98-32.2zm204.96 81.67c-33.77 0-58.9 16.5-72.25 32.2v-27.49h-54.97v207.31h54.97V512.8c9.43-12.57 25.92-24.35 47.12-24.35s38.48 10.21 38.48 38.48v125.64h54.97V506.5c0-40.05-21.99-65.96-67.53-65.96zm259.14 32.2c-16.5-21.2-39.26-32.2-64.4-32.2-52.6 0-91.09 37.7-91.09 106.01s39.27 106.01 91.1 106.01 47.9-11.78 64.39-32.98v21.2c0 40.84-30.63 52.62-57.33 52.62s-47.9-7.07-65.17-25.92l-24.35 39.27c25.92 22.77 53.4 30.62 89.52 30.62 51.05 0 112.3-19.63 112.3-98.16V446.03h-54.97v26.7zm0 106.8c-9.42 13.34-29.05 23.55-47.12 23.55-30.62 0-52.61-21.2-52.61-57.32s21.2-57.33 52.61-57.33 37.7 10.21 47.12 23.56v66.75zm232.44-139c-33.77 0-59.68 16.5-73.03 32.2V366.72h-54.97v286.63h54.97V513.57c9.42-12.56 25.91-24.34 47.12-24.34s38.48 8.63 38.48 37.69v126.43h54.97V505.72c0-40.05-22-65.18-67.54-65.18zm205.74 0c-32.98 0-65.17 10.2-90.3 32.98l20.41 36.13c17.28-16.5 38.48-24.35 60.47-24.35s45.55 14.14 45.55 34.55v28.27c-14.14-16.49-38.48-25.13-65.97-25.13s-72.24 18.85-72.24 66.75 39.26 69.1 72.24 69.1 51.83-10.2 65.97-26.7v21.2h54.97V519.86c0-59.68-43.2-78.53-90.31-78.53zm36.13 163.34c-9.43 11.78-25.92 18.06-43.98 18.06s-39.26-11-39.26-30.63 17.27-31.4 39.26-31.4 34.55 6.27 43.98 18.05v25.92zm355.73-163.34c-31.41 0-58.9 18.85-71.46 37.7-7.86-23.57-27.49-37.7-57.33-37.7s-58.9 19.63-67.53 32.2v-27.49h-54.97v207.31h54.97V512.8c7.85-11.78 24.34-24.35 43.19-24.35s30.62 14.14 30.62 32.98v131.14h54.97V512.8c7.86-11 23.56-24.35 43.2-24.35s30.62 14.14 30.62 32.98v131.14h54.97V502.58c0-42.4-22.77-62.83-61.25-62.83zM39.26 299.19c3.15-5.5 8.64-9.42 14.14-13.35 11.78-9.42 29.84-14.13 54.97-9.42 21.2 3.14 43.97 11 65.96 24.34a166.37 166.37 0 0 1 35.34 29.06c.78 0 1.57 1.57 3.14 2.35L188.46 14.13c0-5.5-.78-9.42-1.57-14.13H0v420.12l98.95-16.49C43.97 373.8 20.42 329.82 39.26 299.2zM144.5 436.61 0 460.17v205.74h237.15l-15.7-213.6c-29.84 40.06-58.11 98.95-65.18 127.22-2.36 8.64-10.21 14.92-18.85 14.92h-4.71c-10.2-2.35-16.5-13.35-14.13-23.56a224.9 224.9 0 0 1 7.85-25.12c7.85-26.7 25.13-69.1 60.46-115.44l-40.83 6.28zm254.42-229.3c32.98 22.78 28.27 95.02-19.63 143.7-3.14 3.15-6.28 6.3-9.43 8.65l132.72-22a126.95 126.95 0 0 0-43.98-14.91c62.82-14.14 113.87-69.9 113.87-153.13S509.64 0 377.72 0H226.95c0 3.93 0 7.07.78 11l23.56 310.18c0-.79.78-2.36 1.57-3.14a177.82 177.82 0 0 1 22.77-55.76c35.34-58.1 91.88-78.53 124.86-54.97zM309.4 410.7c18.06 7.85 34.55 18.06 47.9 30.63a393.7 393.7 0 0 1 67.53 81.66c0 .79 1.58 2.36 2.36 3.15 1.57 2.35 3.14 4.7 3.93 7.06 0 0 0 1.57.78 1.57 11 19.64 14.92 32.2 15.7 33.77 3.15 10.2-2.35 21.2-12.56 24.34s-21.2-2.35-24.34-12.56c0 0-15.7-46.33-64.4-96.59a298.36 298.36 0 0 0-56.53-40.05c-.79 0-1.57-.78-3.14-1.57-4.72-2.35-10.21-3.92-14.92-5.5l-4.72-1.57c-2.35 0-4.7-1.57-7.06-2.35l17.27 232.44h113.08c131.14 0 195.54-84.03 195.54-180.61s-14.92-83.24-40.05-112.3l-235.58 36.91z"/>
  <path fill="#548cbe" d="M168.05 384.79c8.64 1.57 25.13 2.35 35.34 4.7 0 0 .78-.78 0-1.56-25.92-26.7-64.4-58.9-93.45-69.9-7.07-2.35-12.57-3.92-17.28-3.92-7.06 0-11.78 2.36-13.35 5.5-4.71 11 2.36 25.91 25.92 40.83 11.78 7.85 34.55 17.28 62.03 23.56zm197.89-133.5c-5.5-2.36-11.78-1.57-17.28 0-26.7 11.78-54.18 67.53-71.46 113.86 0 1.57-1.57 3.14-1.57 4.72 0 3.14-1.57 5.5 0 7.06 6.28-3.92 18.06-10.2 23.56-14.92 43.19-32.98 77.74-76.17 76.17-98.16 0-3.92-3.14-8.64-7.85-12.56z"/>
  <path fill="#211915" d="M9.42 795.49c11-2.36 28.27-3.93 43.2-3.93 24.34 0 40.04 4.71 50.25 14.13 8.64 7.86 13.35 19.64 13.35 32.99 0 22.77-14.13 37.69-32.2 43.97 13.36 5.5 21.2 18.06 25.13 36.12 5.5 24.35 9.43 40.84 13.35 47.9H98.95c-3.15-5.5-7.07-19.63-11-41.61-5.5-24.35-14.92-32.99-35.34-33.77h-21.2v75.39H9.42V794.7zm22 79.3h22.76c24.35 0 39.27-13.34 39.27-32.97s-16.5-32.2-40.05-32.2-18.06 0-21.99 1.57v63.6zm129.56 33.77c0 30.63 19.63 43.2 43.2 43.2s26.7-3.15 34.54-6.29l3.93 16.5c-7.85 3.92-21.99 7.85-41.62 7.85-38.48 0-61.25-25.92-61.25-63.61s21.99-66.75 58.9-66.75 51.82 35.34 51.82 58.9v10.2h-87.95zm66.75-16.49c0-14.13-6.28-36.9-31.41-36.9s-32.98 21.2-34.55 36.9h66.74zm157.06 56.54c0 29.06-6.29 46.33-18.07 57.33-12.56 11-29.84 14.92-45.54 14.92s-31.41-3.93-41.62-10.21l5.5-17.28c8.63 5.5 21.2 10.21 36.9 10.21 23.56 0 40.05-11.78 40.05-43.97v-13.35c-7.06 11.78-20.41 21.2-40.05 21.2-30.62 0-53.4-26.7-53.4-61.25s27.49-65.97 56.54-65.97 32.99 11 39.27 21.2V842.6h21.2c0 8.64-.78 18.85-.78 33.77v72.24zM362 891.3c0-3.93 0-7.07-1.57-10.21-3.93-13.35-14.92-24.34-31.41-24.34s-36.9 18.06-36.9 47.11 12.56 44.76 36.9 44.76 26.7-8.64 31.41-23.56c1.57-3.92 1.57-8.63 1.57-11.77V890.5zm147.64 45.53c0 11 0 21.2 1.58 29.84H490.8l-1.57-15.7a48.1 48.1 0 0 1-38.48 18.84c-25.13 0-38.48-18.06-38.48-36.12 0-29.84 26.7-47.12 75.39-46.33V885c0-10.2-3.15-29.05-28.27-28.27-11.78 0-24.35 3.15-32.99 9.43l-5.5-14.92c10.22-6.28 25.92-11 41.63-11 38.48 0 47.11 25.92 47.11 51.05v47.11zm-21.98-33.76c-25.13 0-52.62 3.92-52.62 28.27s9.43 21.98 21.2 21.98c16.5 0 27.49-10.2 30.63-21.2 0-2.35.79-5.5.79-7.06v-22zm58.89-119.37h22.78v182.97h-22.78V783.71zm174.33 120.15c0 46.33-32.2 66.75-62.03 66.75s-59.69-25.13-59.69-64.4 27.49-65.96 62.04-65.96 60.47 25.92 60.47 64.4zm-98.94.79c0 27.48 15.7 47.9 37.7 47.9s37.68-20.42 37.68-48.69-10.2-47.9-37.69-47.9-38.48 25.13-38.48 47.9zm124.07 39.26c7.07 3.93 18.85 8.64 29.84 8.64 16.5 0 24.35-7.85 24.35-18.85s-6.29-16.49-22.78-22.77c-22.77-8.64-32.98-20.42-32.98-35.34s16.5-36.9 43.2-36.9 23.55 3.14 30.62 7.85l-5.5 16.49c-4.71-3.14-14.13-7.85-25.91-7.85s-20.42 7.85-20.42 17.27 7.07 14.92 23.56 21.2c21.2 7.86 32.98 18.85 32.98 37.7s-17.28 37.69-46.33 37.69-26.7-3.93-35.34-8.64l5.5-17.27zm168.05-102.08 27.49 73.81a500.68 500.68 0 0 1 8.63 25.92c2.36-7.86 4.72-17.28 7.86-25.92l25.13-73.03h24.34l-33.77 88.74c-16.49 43.19-27.48 64.39-43.19 78.53-11 9.42-21.98 13.35-28.27 14.13l-5.5-18.85c5.5-1.57 13.36-5.5 19.64-11 6.28-4.7 13.35-13.34 18.85-25.12.78-2.36 1.57-3.93 1.57-5.5s0-3.14-1.57-6.28l-46.34-115.43h25.13zm315.68 48.68c-1.57-24.34-3.14-53.4-3.14-75.38a1295.87 1295.87 0 0 1-21.99 65.96l-30.62 84.8h-17.28l-28.27-83.23c-8.64-25.13-14.92-47.12-19.63-67.53 0 21.98-1.57 50.25-3.14 76.95l-4.71 74.6h-21.2l11.77-174.33h28.27l29.84 84.03a911.04 911.04 0 0 1 17.28 58.9c4.71-17.28 11-36.91 18.85-58.9l30.62-84.03h29.06l11 174.33h-22l-3.92-76.17zm74.6 18.06c0 30.63 19.64 43.2 43.2 43.2s26.7-3.15 34.55-6.29l3.92 16.5c-7.85 3.92-21.99 7.85-41.62 7.85-38.48 0-61.25-25.92-61.25-63.61s21.99-66.75 58.9-66.75 51.82 35.34 51.82 58.9v10.2h-87.95zm66.75-16.49c0-14.13-6.28-36.9-31.4-36.9s-33 21.2-34.56 36.9h66.75zm50.26-10.99c0-14.92 0-27.48-.79-39.26h19.64v25.12h1.57c5.5-16.49 19.63-27.48 34.55-27.48h6.28v21.2h-7.85c-15.7 0-27.49 11.78-30.63 29.06v76.95h-22.77V880.3zm170.41 81.67c-6.29 3.14-18.85 7.07-36.13 7.07-37.7 0-62.04-25.92-62.04-63.61s26.7-66.75 66.75-66.75 25.13 3.14 31.41 7.07l-5.5 17.27c-5.49-3.14-14.13-6.28-26.7-6.28-28.26 0-43.97 21.2-43.97 47.12s18.85 47.11 43.2 47.11 21.2-3.14 28.26-6.28l3.93 17.28zm26.69-179.05h22.78v78.53c3.92-6.28 9.42-12.56 16.49-16.49s14.92-6.28 23.56-6.28c16.49 0 43.97 10.21 43.97 53.4v74.6h-22.77V896c0-20.42-7.86-36.9-29.06-36.9s-25.91 10.2-30.62 22.77c-1.57 3.14-1.57 7.06-1.57 10.99v75.39h-22.78V785.28zm231.66 153.13c0 11 0 21.2 1.57 29.84h-20.42l-1.57-15.7a48.1 48.1 0 0 1-38.48 18.84c-25.13 0-38.48-18.06-38.48-36.12 0-29.84 26.7-47.12 75.4-46.33V885c0-10.2-3.15-29.05-28.28-28.27-11.78 0-24.34 3.15-32.98 9.43l-5.5-14.92c10.21-6.28 25.92-11 41.62-11 38.48 0 47.12 25.92 47.12 51.05v47.11zm-21.99-33.76c-25.13 0-52.61 3.92-52.61 28.27s9.42 21.98 21.2 21.98c16.5 0 27.49-10.2 30.63-21.2 0-2.35.78-5.5.78-7.06v-22zm58.11-27.49c0-13.35 0-23.56-.78-33.76h20.41l1.58 20.41c6.28-11.78 20.41-23.56 41.62-23.56s43.97 10.21 43.97 53.4v74.6h-22.77v-72.24c0-20.42-7.86-36.9-29.06-36.9s-26.7 10.2-30.62 23.55c-.79 3.14-1.57 7.07-1.57 10.2v75.4h-22.78v-91.1zm251.29-91.88v150.78c0 11 0 23.56.79 32.2h-20.42v-22h-1.57c-7.07 14.14-21.99 24.35-42.4 24.35-29.85 0-53.4-25.91-53.4-63.6 0-41.63 25.9-66.75 55.75-66.75s32.2 9.42 37.7 18.84v-74.6h22.77zm-22.77 109.16c0-3.14 0-7.07-.79-9.42-3.14-14.14-15.7-25.92-32.98-25.92s-37.7 20.42-37.7 47.9 12.57 46.34 36.92 46.34 29.05-10.21 32.98-27.49c0-3.14.78-6.28.78-9.42v-22zm85.59-85.6c0 7.86-5.5 14.14-14.13 14.14s-13.35-6.28-13.35-14.14 5.5-14.13 14.13-14.13 14.14 6.28 14.14 14.13zm-25.13 160.2V842.6H2198v124.86h-22.77zm57.33-23.56c7.07 3.93 18.85 8.64 29.84 8.64 16.5 0 24.34-7.85 24.34-18.85s-6.28-16.49-22.77-22.77c-22.77-8.64-32.98-20.42-32.98-35.34s16.49-36.9 43.19-36.9 23.56 3.14 30.63 7.85l-5.5 16.49c-4.71-3.14-14.14-7.85-25.92-7.85s-20.41 7.85-20.41 17.27 7.06 14.92 23.56 21.2c21.2 7.86 32.98 18.85 32.98 37.7s-17.28 37.69-46.33 37.69-26.7-3.93-35.34-8.64l5.5-17.27zm131.14-136.64c0 7.86-5.5 14.14-14.13 14.14s-13.35-6.28-13.35-14.14 5.5-14.13 14.13-14.13 14.14 6.28 14.14 14.13zm-25.91 160.2V842.6h22.77v124.86h-22.77zm60.46-91.88c0-13.35 0-23.56-.78-33.76h20.42l1.57 20.41c6.28-11.78 20.41-23.56 41.62-23.56s43.97 10.21 43.97 53.4v74.6h-22.77v-72.24c0-20.42-7.86-36.9-29.06-36.9s-26.7 10.2-30.62 23.55c-.79 3.14-1.57 7.07-1.57 10.2v75.4h-22.78v-91.1zm250.51 73.03c0 29.06-6.29 46.33-18.06 57.33-12.57 11-29.85 14.92-45.55 14.92s-31.41-3.93-41.62-10.21l5.5-17.28c8.63 5.5 21.2 10.21 36.9 10.21 23.56 0 40.05-11.78 40.05-43.97v-13.35c-7.06 11.78-20.41 21.2-40.05 21.2-30.62 0-53.4-26.7-53.4-61.25s27.49-65.97 56.54-65.97 32.99 11 39.27 21.2V842.6h21.2c0 8.64-.78 18.85-.78 33.77v72.24zm-22.78-57.32c0-3.93 0-7.07-1.57-10.21-3.92-13.35-14.92-24.34-31.4-24.34s-36.92 18.06-36.92 47.11 12.57 44.76 36.91 44.76 26.7-8.64 31.41-23.56c1.57-3.92 1.57-8.63 1.57-11.77V890.5z"/>
</svg>
