<?xml version="1.0" encoding="UTF-8"?>
<svg id="Elementos" xmlns="http://www.w3.org/2000/svg" viewBox="0 0 1857.8 511.43">
  <defs>
    <style>
      .cls-1 {
        fill: #002643;
      }

      .cls-2 {
        fill: #00a5a5;
      }
    </style>
  </defs>
  <path class="cls-1" d="M503.11,293.16c-3.4,0-6.15-.56-8.28-1.67-2.13-1.12-3.66-2.71-4.62-4.78-.96-2.07-1.43-4.6-1.43-7.57v-40.93h19.59v-16.24h-19.59v-19.75h-18v6.69c0,4.04-1.12,7.22-3.35,9.55-2.23,2.33-5.36,3.51-9.4,3.51h-2.39v16.24h15.13v41.73c0,9.24,2.49,16.41,7.49,21.5,5,5.09,12,7.64,21.02,7.64,1.38,0,2.97-.1,4.78-.32,1.81-.22,3.45-.42,4.94-.64v-15.45c-.96.1-1.97.22-3.03.32-1.06.1-2.01.16-2.87.16"/>
  <path class="cls-1" d="M546.56,224.59c-3.22,1.89-5.77,4.69-7.65,8.39v-11.01h-17.2v86.17h18v-49.69c0-6.79,1.83-12.03,5.49-15.69,3.66-3.66,8.46-5.49,14.42-5.49h7.49v-16.41h-5.26c-5.95,0-11.05,1.25-15.29,3.74"/>
  <path class="cls-1" d="M629.45,223.88c-5.26-2.55-11.29-3.82-18.08-3.82-5.42,0-10.54.9-15.37,2.71-4.83,1.81-9.06,4.32-12.66,7.56-3.61,3.24-6.21,6.99-7.81,11.23l14.97,7.49c1.7-3.93,4.32-7.14,7.88-9.64,3.56-2.49,7.72-3.74,12.5-3.74,5.2,0,9.37,1.35,12.5,4.06,3.13,2.71,4.7,6.19,4.7,10.43v3.29l-27.4,4.52c-6.59,1.06-12.05,2.87-16.4,5.42-4.36,2.55-7.57,5.68-9.64,9.4-2.07,3.72-3.1,7.91-3.1,12.58,0,4.99,1.22,9.32,3.66,12.98,2.45,3.66,5.87,6.53,10.27,8.6,4.4,2.07,9.53,3.11,15.37,3.11,4.88,0,9.32-.69,13.3-2.07,3.98-1.38,7.54-3.35,10.67-5.89,1.48-1.2,2.83-2.53,4.06-3.95v10h17.2v-57.98c0-5.95-1.46-11.17-4.38-15.69-2.92-4.52-7.01-8.04-12.26-10.59M625.07,284.16c-2.01,3.56-4.86,6.39-8.52,8.52-3.66,2.13-7.94,3.18-12.82,3.18-3.93,0-7.14-1.03-9.64-3.1-2.49-2.07-3.74-4.64-3.74-8.04s1.12-6.19,3.34-8.36c2.23-2.17,5.74-3.69,10.51-4.54l23.89-4.17v4.65c0,4.36-1.01,8.3-3.03,11.87"/>
  <path class="cls-1" d="M722.47,224.19c-4.88-2.76-10.73-4.14-16.88-4.14s-11.57,1.41-16.25,4.22c-3.39,2.03-6.08,4.78-8.12,8.18v-10.49h-17.2v86.17h18v-50.81c0-4.24.8-7.9,2.39-10.99,1.6-3.08,3.85-5.44,6.77-7.09,2.93-1.65,6.23-2.47,9.95-2.47s7.03.82,9.95,2.47c2.92,1.65,5.17,3.98,6.77,7.01,1.59,3.03,2.39,6.71,2.39,11.07v50.81h17.84v-55.59c0-6.37-1.37-12-4.14-16.88-2.77-4.88-6.59-8.7-11.47-11.47"/>
  <path class="cls-1" d="M774.24,237.81c2.33-1.85,5.47-2.79,9.4-2.79,4.56,0,8.68,1.22,12.34,3.66,3.66,2.45,6.35,5.73,8.04,9.87l13.86-6.53c-2.55-6.91-6.91-12.29-13.06-16.17-6.16-3.88-13.17-5.81-21.02-5.81-5.84,0-11.09,1.06-15.77,3.18-4.68,2.13-8.34,5.12-10.99,9-2.65,3.88-3.98,8.42-3.98,13.62,0,5.73,1.83,10.75,5.49,15.05,3.66,4.3,9.22,7.51,16.64,9.64l13.54,3.82c1.81.42,3.58,1.06,5.34,1.91,1.75.85,3.21,1.93,4.38,3.26,1.17,1.33,1.75,3.05,1.75,5.18,0,3.29-1.33,5.89-3.98,7.8-2.65,1.91-6.11,2.87-10.35,2.87-5,0-9.53-1.43-13.62-4.3-4.08-2.87-7.3-6.75-9.63-11.63l-13.86,6.53c2.65,7.33,7.3,13.16,13.94,17.52,6.63,4.36,14.36,6.53,23.18,6.53,6.37,0,11.95-1.09,16.72-3.27,4.78-2.17,8.52-5.2,11.23-9.08,2.71-3.88,4.06-8.36,4.06-13.46,0-5.95-1.91-11.07-5.73-15.37-3.82-4.3-9.3-7.46-16.4-9.48l-14.02-4.14c-1.81-.53-3.56-1.2-5.25-1.99-1.7-.8-3.08-1.85-4.14-3.19-1.06-1.33-1.59-3-1.59-5.02,0-2.97,1.17-5.39,3.5-7.25"/>
  <path class="cls-1" d="M900.55,225.95c-6.53-3.93-13.88-5.89-22.06-5.89-6.79,0-12.85,1.38-18.16,4.14-4.25,2.21-7.79,5.13-10.67,8.7v-10.93h-17.2v118.02h18v-41.92c2.63,3.22,5.88,5.85,9.8,7.83,5.47,2.76,11.55,4.14,18.24,4.14,8.28,0,15.66-1.99,22.14-5.97,6.47-3.98,11.6-9.37,15.37-16.17,3.77-6.79,5.65-14.44,5.65-22.93s-1.89-16.15-5.65-22.94c-3.77-6.79-8.92-12.16-15.45-16.09M899.6,279.54c-2.29,4.3-5.39,7.67-9.32,10.11-3.93,2.45-8.44,3.66-13.54,3.66s-9.48-1.22-13.46-3.66c-3.98-2.45-7.11-5.81-9.4-10.11-2.29-4.3-3.42-9.16-3.42-14.57s1.14-10.25,3.42-14.5c2.29-4.24,5.42-7.59,9.4-10.03,3.98-2.45,8.36-3.66,13.46-3.66s9.61,1.22,13.54,3.66c3.93,2.45,7.03,5.79,9.32,10.03,2.29,4.24,3.42,9.08,3.42,14.5s-1.14,10.27-3.42,14.57"/>
  <path class="cls-1" d="M987.36,223.88c-5.26-2.55-11.29-3.82-18.08-3.82-5.41,0-10.53.9-15.37,2.71-4.84,1.81-9.06,4.32-12.66,7.56-3.61,3.24-6.21,6.99-7.81,11.23l14.97,7.49c1.7-3.93,4.32-7.14,7.89-9.64,3.56-2.49,7.72-3.74,12.5-3.74,5.2,0,9.38,1.35,12.5,4.06,3.13,2.71,4.7,6.19,4.7,10.43v3.29l-27.4,4.52c-6.59,1.06-12.05,2.87-16.41,5.42-4.36,2.55-7.56,5.68-9.64,9.4-2.07,3.72-3.11,7.91-3.11,12.58,0,4.99,1.22,9.32,3.66,12.98,2.45,3.66,5.87,6.53,10.27,8.6,4.4,2.07,9.53,3.11,15.37,3.11,4.88,0,9.32-.69,13.3-2.07,3.98-1.38,7.54-3.35,10.67-5.89,1.48-1.2,2.83-2.53,4.06-3.95v10h17.2v-57.98c0-5.95-1.46-11.17-4.38-15.69-2.92-4.52-7.01-8.04-12.26-10.59M982.98,284.16c-2.01,3.56-4.86,6.39-8.52,8.52-3.66,2.13-7.94,3.18-12.82,3.18-3.93,0-7.14-1.03-9.64-3.1-2.49-2.07-3.74-4.64-3.74-8.04s1.12-6.19,3.35-8.36c2.23-2.17,5.73-3.69,10.51-4.54l23.89-4.17v4.65c0,4.36-1.01,8.3-3.03,11.87"/>
  <path class="cls-1" d="M1046.77,224.59c-3.21,1.89-5.77,4.69-7.65,8.38v-11.01h-17.2v86.17h18.01v-49.69c0-6.79,1.82-12.03,5.49-15.69,3.65-3.66,8.45-5.49,14.42-5.49h7.47v-16.41h-5.25c-5.94,0-11.06,1.25-15.29,3.74"/>
  <path class="cls-1" d="M1142.62,232.56c-3.5-3.88-7.8-6.93-12.89-9.16-5.09-2.23-10.88-3.34-17.36-3.34-8.07,0-15.29,1.93-21.66,5.81-6.37,3.88-11.44,9.16-15.2,15.85-3.77,6.69-5.65,14.6-5.65,23.1s1.84,16.16,5.56,23.01c3.72,6.85,8.9,12.26,15.54,16.25,6.62,3.98,14.24,5.97,22.85,5.97,5.83,0,11.24-.93,16.17-2.79,4.93-1.85,9.17-4.4,12.74-7.64,3.57-3.24,6.19-6.87,7.87-10.91l-14.65-7.17c-2.13,3.72-5.02,6.75-8.68,9.08-3.66,2.33-8.21,3.51-13.3,3.51s-9.64-1.22-13.61-3.66c-3.99-2.44-7.07-5.83-9.24-10.19-1.49-2.99-2.34-6.34-2.56-10.04h64.11c.31-1.27.54-2.65.63-4.14.11-1.49.16-2.92.16-4.3,0-5.63-.92-10.93-2.78-15.93-1.86-4.99-4.53-9.42-8.05-13.3M1091.01,248.96c2.02-4.4,4.89-7.81,8.61-10.2s7.96-3.58,12.74-3.58,8.95,1.19,12.49,3.58c3.57,2.39,6.21,5.63,7.98,9.72.98,2.29,1.5,4.76,1.6,7.41h-45.45c.4-2.52,1.06-4.83,2.02-6.93"/>
  <path class="cls-1" d="M1225.86,224.19c-4.89-2.76-10.74-4.14-16.89-4.14s-11.57,1.41-16.26,4.22c-3.38,2.04-6.07,4.79-8.12,8.19v-10.5h-17.2v86.17h18.01v-50.81c0-4.24.79-7.9,2.38-10.99,1.59-3.08,3.86-5.44,6.77-7.09,2.94-1.65,6.23-2.47,9.96-2.47s7.04.82,9.96,2.47c2.91,1.65,5.18,3.98,6.77,7.01,1.59,3.03,2.38,6.71,2.38,11.07v50.81h17.85v-55.59c0-6.37-1.39-12-4.15-16.88-2.76-4.88-6.59-8.7-11.46-11.47"/>
  <path class="cls-1" d="M1297,293.16c-3.41,0-6.14-.56-8.27-1.67-2.13-1.12-3.68-2.71-4.62-4.78-.96-2.07-1.43-4.6-1.43-7.57v-40.93h19.58v-16.24h-19.58v-19.75h-18.01v6.69c0,4.04-1.1,7.22-3.34,9.55-2.22,2.33-5.36,3.51-9.4,3.51h-2.38v16.24h15.12v41.73c0,9.24,2.49,16.41,7.49,21.5,5,5.09,12,7.64,21.04,7.64,1.37,0,2.96-.1,4.78-.32,1.79-.22,3.43-.42,4.93-.64v-15.45c-.96.1-1.97.22-3.03.32-1.05.1-2.02.16-2.87.16"/>
  <path class="cls-1" d="M1414.37,232.56c-3.5-3.88-7.8-6.93-12.89-9.16-5.09-2.23-10.88-3.34-17.36-3.34-8.07,0-15.29,1.93-21.66,5.81-6.37,3.88-11.44,9.16-15.21,15.85-3.77,6.69-5.65,14.6-5.65,23.1s1.84,16.16,5.56,23.01c3.72,6.85,8.9,12.26,15.54,16.25,6.64,3.98,14.24,5.97,22.85,5.97,5.83,0,11.24-.93,16.17-2.79,4.93-1.85,9.17-4.4,12.74-7.64,3.57-3.24,6.19-6.87,7.89-10.91l-14.67-7.17c-2.13,3.72-5.02,6.75-8.68,9.08-3.65,2.33-8.21,3.51-13.3,3.51s-9.64-1.22-13.61-3.66c-3.99-2.44-7.06-5.83-9.24-10.19-1.49-2.99-2.34-6.34-2.56-10.04h64.11c.31-1.27.54-2.65.63-4.14.11-1.49.16-2.92.16-4.3,0-5.63-.92-10.93-2.78-15.93-1.86-4.99-4.53-9.42-8.05-13.3M1362.77,248.96c2.02-4.4,4.89-7.81,8.61-10.2,3.72-2.39,7.96-3.58,12.74-3.58s8.95,1.19,12.51,3.58c3.54,2.39,6.21,5.63,7.96,9.72.98,2.29,1.5,4.76,1.6,7.41h-45.44c.41-2.52,1.07-4.83,2.02-6.93"/>
  <path class="cls-1" d="M1506.43,232.02c-2.7-3.17-5.98-5.79-9.89-7.82-5.31-2.77-11.41-4.14-18.3-4.14-8.19,0-15.52,1.97-22,5.89-6.46,3.93-11.62,9.3-15.45,16.09-3.81,6.79-5.72,14.44-5.72,22.93s1.88,16.14,5.65,22.94c3.77,6.79,8.93,12.19,15.45,16.17,6.53,3.98,13.93,5.97,22.22,5.97,6.57,0,12.63-1.38,18.14-4.14,4.36-2.19,7.91-5.16,10.67-8.87v11.1h17.04v-120.57h-17.83v44.45ZM1503,279.55c-2.29,4.3-5.43,7.67-9.4,10.11-3.99,2.45-8.48,3.66-13.46,3.66s-9.64-1.22-13.63-3.66c-3.97-2.45-7.09-5.82-9.31-10.11-2.22-4.3-3.34-9.16-3.34-14.57s1.12-10.25,3.34-14.49c2.22-4.24,5.36-7.59,9.4-10.04,4.04-2.45,8.54-3.66,13.54-3.66s9.46,1.22,13.46,3.66c3.97,2.45,7.11,5.79,9.4,10.04,2.29,4.24,3.43,9.08,3.43,14.49s-1.14,10.27-3.43,14.57"/>
  <path class="cls-1" d="M1607.12,233.06c-2.87-3.67-6.28-6.61-10.27-8.78-5.14-2.81-11.01-4.22-17.58-4.22-8.07,0-15.25,1.85-21.51,5.58-6.28,3.72-11.24,8.76-14.89,15.13-3.68,6.37-5.49,13.75-5.49,21.82s1.82,15.35,5.49,21.82c3.66,6.47,8.68,11.57,15.05,15.29,6.37,3.72,13.52,5.58,21.51,5.58,6.57,0,12.49-1.43,17.76-4.3,3.59-1.96,6.62-4.6,9.15-7.81v10.99c0,4.68-1.05,8.68-3.18,12.03-2.13,3.34-5,5.89-8.61,7.64-3.59,1.75-7.69,2.63-12.27,2.63-5.83,0-10.74-1.33-14.73-3.98-3.97-2.65-6.7-5.99-8.19-10.03l-16.57,6.85c1.91,4.78,4.78,8.94,8.61,12.5,3.81,3.56,8.36,6.35,13.68,8.36,5.32,2.01,11.1,3.02,17.38,3.02,8.16,0,15.38-1.7,21.64-5.09,6.28-3.4,11.19-8.04,14.73-13.94,3.57-5.89,5.34-12.56,5.34-19.99v-82.19h-17.04v11.09ZM1603.06,275.88c-2.18,3.88-5.11,6.95-8.84,9.24-3.72,2.29-7.96,3.42-12.74,3.42s-9.24-1.14-13.05-3.42c-3.84-2.29-6.84-5.39-9.02-9.32-2.18-3.93-3.25-8.07-3.25-13.06s1.08-9.42,3.25-13.3c2.17-3.88,5.18-6.95,9.02-9.24,3.81-2.29,8.36-3.43,13.05-3.43s8.86,1.14,12.58,3.43c3.72,2.29,6.68,5.39,8.93,9.32,2.22,3.93,3.34,8.34,3.34,13.22s-1.1,9.26-3.27,13.14"/>
  <path class="cls-1" d="M1718.26,245.86c-1.86-4.99-4.55-9.42-8.05-13.3-3.5-3.88-7.81-6.93-12.9-9.16-5.09-2.23-10.9-3.34-17.36-3.34-8.07,0-15.29,1.93-21.66,5.81-6.37,3.88-11.46,9.16-15.2,15.85-3.77,6.69-5.67,14.6-5.67,23.1s1.86,16.16,5.58,23.01c3.72,6.85,8.9,12.26,15.52,16.25,6.64,3.98,14.26,5.97,22.87,5.97,5.83,0,11.21-.93,16.17-2.79,4.93-1.85,9.17-4.4,12.74-7.64,3.56-3.24,6.19-6.87,7.87-10.91l-14.64-7.17c-2.13,3.72-5.02,6.75-8.68,9.08-3.68,2.33-8.21,3.51-13.3,3.51s-9.64-1.22-13.64-3.66c-3.97-2.44-7.06-5.83-9.22-10.19-1.49-2.99-2.3-6.35-2.53-10.04h64.09c.31-1.27.52-2.65.63-4.14.11-1.49.16-2.92.16-4.3,0-5.63-.92-10.93-2.78-15.93M1658.61,248.96c2.02-4.4,4.89-7.81,8.61-10.2,3.7-2.39,7.96-3.58,12.74-3.58s8.92,1.19,12.49,3.58c3.57,2.39,6.21,5.63,7.96,9.72.99,2.29,1.52,4.76,1.62,7.41h-45.45c.41-2.52,1.07-4.83,2.03-6.93"/>
  <path class="cls-2" d="M247.94,203.6c4.17-4.18,4.17-10.95,0-15.12-4.18-4.17-10.95-4.17-15.12,0-4.17,4.18-4.17,10.95,0,15.12,4.18,4.18,10.95,4.18,15.12,0"/>
  <path class="cls-2" d="M138.09,336.14c-4.18,4.18-4.18,10.95,0,15.12,4.18,4.17,10.95,4.17,15.12,0,4.17-4.18,4.17-10.95,0-15.12-4.18-4.18-10.95-4.18-15.12,0"/>
  <path class="cls-2" d="M251.89,343.33c-4.17-4.18-10.95-4.18-15.13,0-4.17,4.17-4.17,10.95,0,15.12,4.18,4.17,10.95,4.17,15.13,0,4.18-4.18,4.18-10.95,0-15.12"/>
  <path class="cls-2" d="M293.34,264.12l15.53,15.53,5.74,5.74,1.43,1.43c4.17,4.17,10.95,4.17,15.12,0,4.18-4.18,4.18-10.95,0-15.13l-60.5-60.5c-4.18-4.17-10.95-4.17-15.13,0-4.17,4.18-4.17,10.95,0,15.12l22.69,22.69-52.93,52.93c-4.18,4.17-4.18,10.95,0,15.12,4.17,4.18,10.95,4.18,15.13,0l52.93-52.93Z"/>
  <path class="cls-2" d="M376.59,165.53c-45.94-45.94-120.42-45.94-166.36,0-.08.08-.15.15-.24.23-4.13,4.15-4.05,10.89.1,15.03l.04.04c4.19,4.19,10.95,4.09,15.14-.11l.08-.08h0c37.59-37.59,98.53-37.59,136.12,0,37.59,37.59,37.59,98.53,0,136.12l-.08.08c-4.2,4.19-4.3,10.95-.11,15.14l.04.04c4.14,4.14,10.88,4.22,15.03.09.08-.08.15-.15.23-.23,45.94-45.94,45.94-120.43,0-166.37"/>
  <path class="cls-2" d="M179.96,271.58l45.37-45.37c4.17-4.18,4.17-10.95,0-15.12-4.18-4.17-10.95-4.17-15.12,0l-45.37,45.37c-4.18,4.18-4.18,10.95,0,15.13,4.18,4.18,10.95,4.18,15.13,0"/>
  <path class="cls-2" d="M229.18,275.29c4.18-4.18,4.18-10.95,0-15.12-4.18-4.17-10.95-4.17-15.12,0l-53.07,53.07c-4.18,4.18-4.18,10.95,0,15.13,4.18,4.18,10.95,4.18,15.12,0l53.07-53.07Z"/>
  <path class="cls-2" d="M282.04,298.04l-22.69,22.69c-4.18,4.18-4.18,10.95,0,15.12,4.17,4.18,10.95,4.18,15.12,0l22.69-22.69c4.17-4.18,4.17-10.95,0-15.13-4.18-4.18-10.95-4.18-15.13,0"/>
  <path class="cls-2" d="M338.76,294.27l-83.18,83.18c-4.18,4.18-4.18,10.95,0,15.12,4.18,4.17,10.95,4.17,15.12,0l83.18-83.18c4.18-4.18,4.18-10.95,0-15.12s-10.95-4.17-15.12,0"/>
  <path class="cls-2" d="M195.12,332.04l-22.98,22.98c-4.16,4.16-4.16,10.9,0,15.06,4.16,4.16,10.9,4.16,15.06,0l22.98-22.98c4.16-4.16,4.16-10.9,0-15.06-4.16-4.16-10.9-4.16-15.06,0"/>
</svg>