<?xml version="1.0" encoding="UTF-8"?>
<svg id="Elementos" xmlns="http://www.w3.org/2000/svg" viewBox="0 0 986.97 968.64">
  <defs>
    <style>
      .cls-1 {
        fill: #002643;
      }

      .cls-2 {
        fill: #00a5a5;
      }
    </style>
  </defs>
  <g>
    <path class="cls-1" d="M219.87,648.45c-2.47,0-4.48-.41-6.02-1.22-1.55-.81-2.67-1.97-3.36-3.47-.7-1.51-1.04-3.34-1.04-5.5v-29.78h14.25v-11.82h-14.25v-14.37h-13.09v4.87c0,2.94-.81,5.26-2.43,6.95-1.62,1.7-3.9,2.55-6.84,2.55h-1.74v11.82h11.01v30.36c0,6.72,1.81,11.94,5.45,15.64,3.63,3.71,8.73,5.56,15.29,5.56,1,0,2.16-.08,3.47-.23,1.32-.16,2.51-.31,3.59-.47v-11.24c-.69.08-1.43.16-2.2.23-.77.08-1.47.12-2.09.12"/>
    <path class="cls-1" d="M251.47,598.58c-2.34,1.37-4.19,3.41-5.56,6.1v-8.01h-12.51v62.68h13.09v-36.15c0-4.94,1.33-8.75,4-11.41,2.66-2.67,6.16-4,10.49-4h5.45v-11.94h-3.82c-4.33,0-8.03.91-11.12,2.72"/>
    <path class="cls-1" d="M311.77,598.06c-3.82-1.85-8.21-2.78-13.15-2.78-3.94,0-7.66.65-11.18,1.97-3.52,1.32-6.59,3.14-9.21,5.5-2.62,2.36-4.52,5.08-5.68,8.17l10.89,5.44c1.23-2.85,3.15-5.2,5.74-7.01,2.59-1.81,5.62-2.72,9.1-2.72,3.78,0,6.82.98,9.1,2.95,2.28,1.97,3.42,4.5,3.42,7.59v2.39l-19.93,3.29c-4.79.77-8.76,2.09-11.93,3.94-3.17,1.85-5.5,4.13-7.01,6.84-1.51,2.7-2.26,5.75-2.26,9.15,0,3.63.88,6.78,2.66,9.44,1.78,2.66,4.27,4.75,7.47,6.26,3.2,1.51,6.94,2.26,11.18,2.26,3.55,0,6.78-.5,9.67-1.51,2.9-1,5.49-2.43,7.76-4.29,1.08-.88,2.06-1.84,2.95-2.87v7.27h12.51v-42.17c0-4.33-1.06-8.13-3.18-11.42-2.13-3.28-5.1-5.85-8.92-7.7M308.58,641.91c-1.46,2.59-3.53,4.65-6.2,6.2-2.66,1.55-5.77,2.32-9.32,2.32-2.85,0-5.2-.75-7.01-2.26-1.81-1.5-2.72-3.38-2.72-5.85s.81-4.5,2.43-6.08c1.62-1.58,4.17-2.68,7.65-3.3l17.38-3.04v3.39c0,3.17-.74,6.04-2.2,8.63"/>
    <path class="cls-1" d="M356.66,609.24c2.13-1.2,4.53-1.8,7.24-1.8s5.12.59,7.24,1.8c2.13,1.2,3.76,2.9,4.92,5.1,1.16,2.2,1.74,4.88,1.74,8.05v36.96h12.98v-40.43c0-4.64-1-8.73-3.01-12.28-2.01-3.55-4.79-6.33-8.34-8.34-3.55-2.01-7.8-3.01-12.28-3.01s-8.42,1.02-11.82,3.07c-2.46,1.48-4.42,3.47-5.91,5.95v-7.63h-12.51v62.68h13.09v-36.96c0-3.09.58-5.75,1.74-7.99,1.16-2.24,2.8-3.95,4.92-5.15"/>
    <path class="cls-1" d="M433.07,647.99c-1.93,1.39-4.44,2.09-7.53,2.09-3.63,0-6.94-1.04-9.91-3.13-2.97-2.09-5.31-4.91-7.01-8.46l-10.08,4.75c1.93,5.33,5.31,9.57,10.14,12.74,4.83,3.17,10.45,4.75,16.86,4.75,4.63,0,8.69-.79,12.16-2.37,3.48-1.58,6.2-3.78,8.17-6.6,1.97-2.82,2.95-6.08,2.95-9.79,0-4.33-1.39-8.05-4.17-11.18-2.78-3.13-6.76-5.43-11.93-6.89l-10.2-3.01c-1.32-.39-2.59-.87-3.82-1.45-1.23-.58-2.24-1.35-3.01-2.32-.77-.97-1.16-2.18-1.16-3.65,0-2.16.85-3.92,2.55-5.27,1.7-1.35,3.98-2.03,6.84-2.03,3.32,0,6.31.88,8.98,2.66,2.66,1.78,4.62,4.17,5.85,7.18l10.08-4.75c-1.85-5.02-5.02-8.94-9.5-11.76-4.48-2.82-9.57-4.23-15.29-4.23-4.25,0-8.07.77-11.47,2.32-3.4,1.55-6.07,3.72-7.99,6.55-1.93,2.82-2.9,6.12-2.9,9.91,0,4.17,1.33,7.82,4,10.95,2.67,3.13,6.7,5.46,12.11,7.01l9.85,2.78c1.32.31,2.61.77,3.88,1.39,1.27.62,2.33,1.41,3.19,2.37.85.97,1.27,2.22,1.27,3.77,0,2.39-.97,4.29-2.9,5.68"/>
    <path class="cls-1" d="M520.21,644.63c2.74-4.94,4.11-10.5,4.11-16.69s-1.37-11.74-4.11-16.68c-2.74-4.94-6.49-8.85-11.24-11.7-4.75-2.85-10.1-4.29-16.05-4.29-4.94,0-9.34,1-13.21,3.01-3.09,1.61-5.66,3.73-7.76,6.33v-7.95h-12.51v85.85h13.09v-30.49c1.92,2.35,4.28,4.26,7.12,5.7,3.98,2.01,8.4,3.01,13.27,3.01,6.03,0,11.4-1.45,16.1-4.35,4.71-2.9,8.44-6.82,11.18-11.76M501.5,645.91c-2.85,1.78-6.14,2.66-9.85,2.66s-6.89-.88-9.79-2.66c-2.9-1.78-5.17-4.23-6.84-7.36-1.67-3.13-2.49-6.66-2.49-10.6s.83-7.46,2.49-10.54c1.66-3.09,3.94-5.52,6.84-7.3,2.9-1.78,6.08-2.66,9.79-2.66s6.99.89,9.85,2.66c2.85,1.78,5.11,4.21,6.78,7.3,1.67,3.09,2.49,6.6,2.49,10.54s-.83,7.47-2.49,10.6c-1.66,3.13-3.92,5.58-6.78,7.36"/>
    <path class="cls-1" d="M571.7,652.08v7.27h12.52v-42.17c0-4.33-1.06-8.13-3.19-11.42-2.12-3.28-5.09-5.85-8.91-7.7-3.82-1.85-8.2-2.78-13.15-2.78-3.94,0-7.66.65-11.18,1.97-3.52,1.32-6.59,3.14-9.21,5.5-2.62,2.36-4.52,5.08-5.67,8.17l10.89,5.44c1.23-2.85,3.14-5.2,5.73-7.01,2.59-1.81,5.62-2.72,9.09-2.72,3.77,0,6.82.98,9.1,2.95,2.27,1.97,3.41,4.5,3.41,7.59v2.39l-19.92,3.29c-4.79.77-8.77,2.09-11.93,3.94-3.17,1.85-5.5,4.13-7.01,6.84-1.5,2.71-2.26,5.75-2.26,9.15,0,3.63.89,6.78,2.67,9.44,1.78,2.66,4.27,4.75,7.47,6.26,3.2,1.51,6.93,2.26,11.18,2.26,3.55,0,6.78-.5,9.67-1.51,2.91-1,5.49-2.43,7.77-4.29,1.07-.88,2.05-1.83,2.94-2.86M562.74,648.11c-2.67,1.55-5.78,2.32-9.34,2.32-2.85,0-5.2-.75-7.01-2.26-1.81-1.5-2.72-3.38-2.72-5.85s.81-4.5,2.43-6.08c1.62-1.58,4.17-2.68,7.65-3.3l17.37-3.04v3.38c0,3.17-.73,6.04-2.2,8.63-1.46,2.59-3.52,4.65-6.19,6.2"/>
    <path class="cls-1" d="M615.33,598.58c-2.35,1.37-4.19,3.41-5.56,6.1v-8.01h-12.52v62.68h13.1v-36.15c0-4.94,1.32-8.75,3.99-11.41,2.66-2.67,6.17-4,10.49-4h5.44v-11.94h-3.82c-4.32,0-8.04.91-11.11,2.72"/>
    <path class="cls-1" d="M685.06,604.37c-2.56-2.82-5.69-5.04-9.39-6.66-3.7-1.62-7.92-2.43-12.62-2.43-5.87,0-11.13,1.41-15.76,4.23-4.63,2.82-8.32,6.66-11.07,11.53-2.74,4.87-4.12,10.62-4.12,16.8s1.36,11.76,4.05,16.74c2.71,4.98,6.48,8.92,11.3,11.82,4.83,2.9,10.37,4.35,16.64,4.35,4.24,0,8.17-.68,11.76-2.03,3.59-1.35,6.67-3.2,9.26-5.56,2.6-2.36,4.5-5,5.74-7.94l-10.67-5.21c-1.54,2.71-3.64,4.91-6.3,6.6-2.68,1.7-5.97,2.55-9.68,2.55s-7.01-.89-9.91-2.66c-2.89-1.78-5.14-4.25-6.73-7.42-1.08-2.18-1.69-4.62-1.85-7.3h46.64c.23-.93.38-1.93.46-3.01.07-1.09.12-2.13.12-3.13,0-4.1-.68-7.95-2.03-11.59-1.34-3.63-3.29-6.85-5.84-9.67M647.51,616.31c1.46-3.2,3.56-5.68,6.25-7.42,2.71-1.74,5.79-2.6,9.28-2.6s6.5.87,9.1,2.6c2.58,1.74,4.51,4.1,5.79,7.07.72,1.67,1.09,3.46,1.17,5.39h-33.06c.29-1.83.78-3.52,1.48-5.04"/>
    <path class="cls-1" d="M745.59,598.29c-3.54-2.01-7.81-3.01-12.27-3.01s-8.42,1.02-11.82,3.07c-2.47,1.48-4.42,3.47-5.9,5.95v-7.62h-12.52v62.68h13.1v-36.96c0-3.09.58-5.75,1.74-7.99,1.16-2.24,2.79-3.95,4.93-5.15,2.12-1.2,4.53-1.8,7.23-1.8s5.13.6,7.24,1.8c2.13,1.2,3.77,2.9,4.93,5.1,1.16,2.2,1.74,4.88,1.74,8.05v36.96h12.98v-40.44c0-4.63-1.01-8.73-3.01-12.28-2.02-3.55-4.8-6.33-8.35-8.34"/>
    <path class="cls-1" d="M799.43,648.34c-.76.08-1.46.12-2.08.12-2.48,0-4.48-.41-6.02-1.22-1.55-.81-2.66-1.97-3.36-3.48-.7-1.5-1.04-3.34-1.04-5.5v-29.78h14.24v-11.82h-14.24v-14.37h-13.1v4.87c0,2.94-.81,5.26-2.43,6.95-1.62,1.7-3.9,2.55-6.83,2.55h-1.74v11.82h11v30.36c0,6.72,1.82,11.93,5.44,15.64,3.64,3.71,8.73,5.56,15.3,5.56.99,0,2.17-.08,3.47-.23,1.32-.16,2.51-.31,3.59-.47v-11.24c-.7.08-1.42.16-2.2.23"/>
    <path class="cls-1" d="M406.77,731.94c-2.55-2.82-5.68-5.04-9.38-6.66-3.71-1.62-7.92-2.43-12.63-2.43-5.87,0-11.12,1.41-15.76,4.23-4.63,2.82-8.33,6.66-11.07,11.53-2.74,4.87-4.11,10.62-4.11,16.8s1.35,11.76,4.06,16.74c2.71,4.98,6.47,8.92,11.3,11.82,4.82,2.9,10.37,4.35,16.63,4.35,4.24,0,8.17-.68,11.76-2.03,3.59-1.35,6.68-3.2,9.27-5.56,2.59-2.36,4.5-5,5.74-7.93l-10.66-5.21c-1.55,2.71-3.65,4.91-6.32,6.6-2.66,1.7-5.97,2.55-9.67,2.55s-7.01-.89-9.91-2.67c-2.9-1.78-5.14-4.24-6.72-7.41-1.08-2.17-1.67-4.62-1.83-7.3h46.61c.23-.93.39-1.93.46-3.01.08-1.09.12-2.13.12-3.13,0-4.1-.68-7.95-2.03-11.59-1.35-3.63-3.3-6.85-5.85-9.67M369.23,743.88c1.47-3.2,3.55-5.68,6.26-7.42,2.71-1.74,5.79-2.6,9.27-2.6s6.51.87,9.1,2.6c2.59,1.74,4.52,4.1,5.79,7.07.71,1.67,1.09,3.46,1.16,5.39h-33.05c.29-1.83.78-3.52,1.47-5.04"/>
    <path class="cls-1" d="M473.72,731.54c-1.96-2.3-4.35-4.2-7.18-5.68-3.86-2.01-8.3-3.01-13.32-3.01-5.95,0-11.28,1.43-15.99,4.29-4.71,2.85-8.46,6.76-11.24,11.7-2.78,4.94-4.17,10.5-4.17,16.69s1.37,11.74,4.11,16.68c2.74,4.94,6.49,8.86,11.24,11.76,4.75,2.9,10.14,4.35,16.16,4.35,4.79,0,9.19-1,13.21-3.01,3.17-1.59,5.75-3.75,7.76-6.45v8.07h12.4v-87.71h-12.97v32.33ZM471.23,766.12c-1.66,3.13-3.94,5.58-6.84,7.36-2.9,1.78-6.16,2.66-9.79,2.66s-7.01-.89-9.91-2.66c-2.9-1.78-5.15-4.23-6.78-7.36-1.62-3.13-2.43-6.66-2.43-10.6s.81-7.46,2.43-10.54c1.62-3.08,3.9-5.52,6.84-7.3,2.94-1.78,6.22-2.67,9.85-2.67s6.89.89,9.79,2.67c2.9,1.78,5.17,4.21,6.84,7.3,1.66,3.09,2.49,6.6,2.49,10.54s-.83,7.47-2.49,10.6"/>
    <path class="cls-1" d="M546.98,732.31c-2.09-2.67-4.57-4.81-7.47-6.39-3.75-2.04-8.01-3.07-12.8-3.07-5.87,0-11.08,1.35-15.64,4.06-4.56,2.71-8.17,6.37-10.83,11-2.66,4.63-4,10.01-4,15.87s1.33,11.16,4,15.87c2.66,4.71,6.32,8.41,10.95,11.12,4.63,2.71,9.85,4.05,15.64,4.05,4.79,0,9.1-1.04,12.92-3.13,2.62-1.43,4.82-3.35,6.66-5.68v8c0,3.4-.77,6.32-2.32,8.75-1.55,2.43-3.63,4.29-6.26,5.56-2.62,1.27-5.6,1.91-8.92,1.91-4.25,0-7.82-.97-10.72-2.9-2.9-1.93-4.88-4.36-5.97-7.3l-12.05,4.98c1.39,3.47,3.48,6.5,6.26,9.09,2.78,2.59,6.1,4.62,9.96,6.08,3.87,1.46,8.07,2.2,12.63,2.2,5.95,0,11.2-1.23,15.76-3.71,4.56-2.47,8.13-5.85,10.72-10.14,2.59-4.29,3.88-9.14,3.88-14.54v-59.78h-12.4v8.07ZM544.03,763.46c-1.58,2.82-3.73,5.06-6.43,6.72-2.71,1.66-5.79,2.49-9.27,2.49s-6.72-.83-9.5-2.49c-2.78-1.66-4.97-3.92-6.55-6.78-1.58-2.86-2.37-5.87-2.37-9.5s.8-6.85,2.37-9.67c1.58-2.82,3.77-5.06,6.55-6.72,2.78-1.66,6.1-2.49,9.5-2.49s6.45.83,9.15,2.49c2.7,1.66,4.87,3.92,6.49,6.78,1.62,2.86,2.43,6.07,2.43,9.62s-.8,6.74-2.37,9.56"/>
    <path class="cls-1" d="M621.96,731.94c-2.55-2.82-5.67-5.04-9.39-6.66-3.7-1.62-7.91-2.43-12.62-2.43-5.87,0-11.13,1.41-15.76,4.23-4.63,2.82-8.32,6.66-11.07,11.53-2.73,4.87-4.12,10.62-4.12,16.8s1.36,11.76,4.07,16.74c2.7,4.98,6.47,8.92,11.3,11.82,4.81,2.9,10.37,4.35,16.62,4.35,4.25,0,8.17-.68,11.76-2.03,3.59-1.35,6.68-3.2,9.26-5.56,2.6-2.36,4.51-5,5.74-7.93l-10.65-5.21c-1.56,2.71-3.66,4.91-6.32,6.6-2.66,1.7-5.97,2.55-9.68,2.55s-7.01-.89-9.91-2.67c-2.9-1.78-5.14-4.24-6.72-7.41-1.09-2.17-1.68-4.62-1.84-7.3h46.61c.23-.93.4-1.93.46-3.01.08-1.09.12-2.13.12-3.13,0-4.1-.68-7.95-2.02-11.59-1.36-3.63-3.31-6.85-5.86-9.67M584.42,743.88c1.47-3.2,3.56-5.68,6.25-7.42,2.71-1.74,5.81-2.6,9.28-2.6s6.5.87,9.1,2.6c2.58,1.74,4.51,4.1,5.79,7.07.71,1.67,1.09,3.46,1.17,5.39h-33.05c.3-1.83.78-3.52,1.47-5.04"/>
  </g>
  <g>
    <path class="cls-2" d="M459.53,274.47c5.61-5.61,5.61-14.72,0-20.33-5.61-5.61-14.72-5.61-20.33,0-5.61,5.61-5.61,14.72,0,20.33,5.61,5.61,14.72,5.61,20.33,0"/>
    <path class="cls-2" d="M312.34,452.15c-5.61,5.61-5.61,14.72,0,20.33,5.61,5.61,14.72,5.61,20.33,0,5.61-5.61,5.61-14.72,0-20.33-5.61-5.61-14.72-5.61-20.33,0"/>
    <path class="cls-2" d="M465.3,461.81c-5.61-5.61-14.72-5.61-20.33,0-5.61,5.61-5.61,14.72,0,20.33,5.61,5.61,14.72,5.61,20.33,0,5.61-5.61,5.61-14.72,0-20.33"/>
    <path class="cls-2" d="M521.01,355.35l23.07,23.07c-.94-.94-1.74-1.74-2.2-2.2l9.63,9.63c5.62,5.61,14.72,5.61,20.34,0,5.61-5.61,5.61-14.72,0-20.33l-81.33-81.32c-5.61-5.61-14.72-5.61-20.33,0-5.61,5.61-5.61,14.72,0,20.33l30.49,30.49-71.15,71.15c-5.61,5.61-5.61,14.72,0,20.33,5.61,5.61,14.72,5.61,20.33,0l71.15-71.15Z"/>
    <path class="cls-2" d="M632.5,223.45c-61.74-61.75-161.86-61.75-223.61,0-.11.11-.21.21-.32.32-5.55,5.58-5.44,14.64.13,20.2l.06.06c5.63,5.64,14.72,5.5,20.35-.15l.11-.11h0c50.52-50.52,132.44-50.52,182.95,0,50.53,50.52,50.53,132.43,0,182.96l-.1.11c-5.64,5.63-5.79,14.71-.14,20.35l.06.06c5.56,5.57,14.62,5.67,20.2.13.1-.1.21-.21.31-.32,61.75-61.75,61.75-161.87,0-223.61"/>
    <path class="cls-2" d="M368.62,365.37l60.98-60.98c5.61-5.61,5.61-14.72,0-20.33-5.61-5.61-14.71-5.61-20.33,0l-60.98,60.98c-5.61,5.61-5.61,14.71,0,20.33,5.61,5.61,14.71,5.61,20.33,0"/>
    <path class="cls-2" d="M434.78,370.36c5.61-5.61,5.61-14.71,0-20.33-5.61-5.61-14.71-5.61-20.33,0l-71.34,71.34c-5.61,5.61-5.61,14.71,0,20.33,5.61,5.61,14.72,5.61,20.33,0l71.34-71.34Z"/>
    <path class="cls-2" d="M505.83,400.95l-30.49,30.49c-5.61,5.61-5.61,14.72,0,20.33,5.61,5.61,14.71,5.61,20.33,0l30.5-30.49c5.61-5.61,5.61-14.71,0-20.33-5.61-5.61-14.72-5.61-20.33,0"/>
    <path class="cls-2" d="M582.32,396.04l-111.81,111.81c-5.61,5.61-5.61,14.71,0,20.33,5.61,5.61,14.71,5.61,20.33,0l111.81-111.81c5.61-5.61,5.61-14.71,0-20.33-5.61-5.61-14.71-5.61-20.33,0"/>
    <path class="cls-2" d="M389.23,446.82l-30.89,30.89c-5.59,5.59-5.59,14.66,0,20.25,5.59,5.59,14.66,5.59,20.25,0l30.89-30.89c5.59-5.59,5.59-14.66,0-20.25-5.59-5.59-14.66-5.59-20.25,0"/>
  </g>
</svg>